<mxfile host="app.diagrams.net" agent="Mozilla/5.0 (Windows NT 10.0; Win64; x64) AppleWebKit/537.36 (KHTML, like Gecko) Chrome/129.0.0.0 Safari/537.36 Edg/129.0.0.0" version="24.7.16">
  <diagram name="第 1 页" id="ELF7TisMK05JxRAkNjR8">
    <mxGraphModel dx="815" dy="446" grid="1" gridSize="10" guides="1" tooltips="1" connect="1" arrows="1" fold="1" page="1" pageScale="1" pageWidth="827" pageHeight="1169" math="0" shadow="0">
      <root>
        <mxCell id="0" />
        <mxCell id="1" parent="0" />
        <mxCell id="w-wRqAi06MyMCp4loZvn-1" value="Input（1024×2）" style="rounded=0;whiteSpace=wrap;html=1;fillColor=#ffe6cc;strokeColor=#d79b00;" vertex="1" parent="1">
          <mxGeometry x="20" y="220" width="120" height="60" as="geometry" />
        </mxCell>
        <mxCell id="w-wRqAi06MyMCp4loZvn-2" value="Linear Layer (fc_in)" style="rounded=0;whiteSpace=wrap;html=1;fillColor=#ffe6cc;strokeColor=#d79b00;" vertex="1" parent="1">
          <mxGeometry x="169" y="220" width="120" height="60" as="geometry" />
        </mxCell>
        <mxCell id="w-wRqAi06MyMCp4loZvn-3" value="Positional Encoding" style="rounded=0;whiteSpace=wrap;html=1;fillColor=#ffe6cc;strokeColor=#d79b00;" vertex="1" parent="1">
          <mxGeometry x="310" y="220" width="120" height="60" as="geometry" />
        </mxCell>
        <mxCell id="w-wRqAi06MyMCp4loZvn-5" value="Self-Attention (8 heads)" style="rounded=0;whiteSpace=wrap;html=1;fillColor=#ffe6cc;strokeColor=#d79b00;" vertex="1" parent="1">
          <mxGeometry x="440" y="300" width="80" height="40" as="geometry" />
        </mxCell>
        <mxCell id="w-wRqAi06MyMCp4loZvn-6" value="Feed Forward" style="rounded=0;whiteSpace=wrap;html=1;fillColor=#ffe6cc;strokeColor=#d79b00;" vertex="1" parent="1">
          <mxGeometry x="440" y="170" width="80" height="30" as="geometry" />
        </mxCell>
        <mxCell id="w-wRqAi06MyMCp4loZvn-9" value="Dropout（0.1）" style="rounded=0;whiteSpace=wrap;html=1;fillColor=#ffe6cc;strokeColor=#d79b00;" vertex="1" parent="1">
          <mxGeometry x="820" y="220" width="120" height="60" as="geometry" />
        </mxCell>
        <mxCell id="w-wRqAi06MyMCp4loZvn-10" value="Linear Layer（fc_out)" style="rounded=0;whiteSpace=wrap;html=1;fillColor=#ffe6cc;strokeColor=#d79b00;" vertex="1" parent="1">
          <mxGeometry x="970" y="220" width="120" height="60" as="geometry" />
        </mxCell>
        <mxCell id="w-wRqAi06MyMCp4loZvn-11" value="Self-Attention (8 heads)" style="rounded=0;whiteSpace=wrap;html=1;fillColor=#ffe6cc;strokeColor=#d79b00;" vertex="1" parent="1">
          <mxGeometry x="530" y="300" width="80" height="40" as="geometry" />
        </mxCell>
        <mxCell id="w-wRqAi06MyMCp4loZvn-12" value="Feed Forward" style="rounded=0;whiteSpace=wrap;html=1;fillColor=#ffe6cc;strokeColor=#d79b00;" vertex="1" parent="1">
          <mxGeometry x="530" y="170" width="80" height="30" as="geometry" />
        </mxCell>
        <mxCell id="w-wRqAi06MyMCp4loZvn-13" value="Self-Attention (8 heads)" style="rounded=0;whiteSpace=wrap;html=1;fillColor=#ffe6cc;strokeColor=#d79b00;" vertex="1" parent="1">
          <mxGeometry x="620" y="300" width="80" height="40" as="geometry" />
        </mxCell>
        <mxCell id="w-wRqAi06MyMCp4loZvn-14" value="Feed Forward" style="rounded=0;whiteSpace=wrap;html=1;fillColor=#ffe6cc;strokeColor=#d79b00;" vertex="1" parent="1">
          <mxGeometry x="620" y="170" width="80" height="30" as="geometry" />
        </mxCell>
        <mxCell id="w-wRqAi06MyMCp4loZvn-17" value="Self-Attention (8 heads)" style="rounded=0;whiteSpace=wrap;html=1;fillColor=#ffe6cc;strokeColor=#d79b00;" vertex="1" parent="1">
          <mxGeometry x="710" y="300" width="80" height="40" as="geometry" />
        </mxCell>
        <mxCell id="w-wRqAi06MyMCp4loZvn-18" value="Feed Forward" style="rounded=0;whiteSpace=wrap;html=1;fillColor=#ffe6cc;strokeColor=#d79b00;" vertex="1" parent="1">
          <mxGeometry x="710" y="170" width="80" height="30" as="geometry" />
        </mxCell>
        <mxCell id="w-wRqAi06MyMCp4loZvn-19" value="Output (1024 x 2)" style="rounded=0;whiteSpace=wrap;html=1;fillColor=#ffe6cc;strokeColor=#d79b00;" vertex="1" parent="1">
          <mxGeometry x="1130" y="220" width="120" height="60" as="geometry" />
        </mxCell>
        <mxCell id="w-wRqAi06MyMCp4loZvn-20" value="" style="endArrow=classic;html=1;rounded=0;exitX=1;exitY=0.5;exitDx=0;exitDy=0;entryX=0;entryY=0.5;entryDx=0;entryDy=0;" edge="1" parent="1" source="w-wRqAi06MyMCp4loZvn-1" target="w-wRqAi06MyMCp4loZvn-2">
          <mxGeometry width="50" height="50" relative="1" as="geometry">
            <mxPoint x="350" y="320" as="sourcePoint" />
            <mxPoint x="400" y="270" as="targetPoint" />
          </mxGeometry>
        </mxCell>
        <mxCell id="w-wRqAi06MyMCp4loZvn-21" value="" style="endArrow=classic;html=1;rounded=0;exitX=1;exitY=0.5;exitDx=0;exitDy=0;" edge="1" parent="1">
          <mxGeometry width="50" height="50" relative="1" as="geometry">
            <mxPoint x="289" y="249.71" as="sourcePoint" />
            <mxPoint x="310" y="250" as="targetPoint" />
          </mxGeometry>
        </mxCell>
        <mxCell id="w-wRqAi06MyMCp4loZvn-22" value="" style="endArrow=classic;html=1;rounded=0;exitX=0.5;exitY=1;exitDx=0;exitDy=0;entryX=0;entryY=0.5;entryDx=0;entryDy=0;" edge="1" parent="1" source="w-wRqAi06MyMCp4loZvn-3" target="w-wRqAi06MyMCp4loZvn-5">
          <mxGeometry width="50" height="50" relative="1" as="geometry">
            <mxPoint x="350" y="320" as="sourcePoint" />
            <mxPoint x="400" y="270" as="targetPoint" />
            <Array as="points">
              <mxPoint x="370" y="320" />
            </Array>
          </mxGeometry>
        </mxCell>
        <mxCell id="w-wRqAi06MyMCp4loZvn-23" value="" style="endArrow=classic;html=1;rounded=0;exitX=0.5;exitY=0;exitDx=0;exitDy=0;entryX=0;entryY=0.5;entryDx=0;entryDy=0;" edge="1" parent="1" source="w-wRqAi06MyMCp4loZvn-3" target="w-wRqAi06MyMCp4loZvn-6">
          <mxGeometry width="50" height="50" relative="1" as="geometry">
            <mxPoint x="160" y="270" as="sourcePoint" />
            <mxPoint x="189" y="270" as="targetPoint" />
            <Array as="points">
              <mxPoint x="370" y="185" />
            </Array>
          </mxGeometry>
        </mxCell>
        <mxCell id="w-wRqAi06MyMCp4loZvn-24" value="" style="endArrow=classic;html=1;rounded=0;entryX=0.5;entryY=1;entryDx=0;entryDy=0;exitX=0.5;exitY=0;exitDx=0;exitDy=0;" edge="1" parent="1" source="w-wRqAi06MyMCp4loZvn-5" target="w-wRqAi06MyMCp4loZvn-6">
          <mxGeometry width="50" height="50" relative="1" as="geometry">
            <mxPoint x="510" y="320" as="sourcePoint" />
            <mxPoint x="560" y="270" as="targetPoint" />
          </mxGeometry>
        </mxCell>
        <mxCell id="w-wRqAi06MyMCp4loZvn-25" value="" style="endArrow=classic;html=1;rounded=0;exitX=1;exitY=0.5;exitDx=0;exitDy=0;entryX=0.5;entryY=1;entryDx=0;entryDy=0;" edge="1" parent="1" target="w-wRqAi06MyMCp4loZvn-12">
          <mxGeometry width="50" height="50" relative="1" as="geometry">
            <mxPoint x="570" y="299.43" as="sourcePoint" />
            <mxPoint x="599" y="299.43" as="targetPoint" />
          </mxGeometry>
        </mxCell>
        <mxCell id="w-wRqAi06MyMCp4loZvn-26" value="" style="endArrow=classic;html=1;rounded=0;exitX=1;exitY=0.5;exitDx=0;exitDy=0;entryX=0.5;entryY=1;entryDx=0;entryDy=0;" edge="1" parent="1" source="w-wRqAi06MyMCp4loZvn-17" target="w-wRqAi06MyMCp4loZvn-9">
          <mxGeometry width="50" height="50" relative="1" as="geometry">
            <mxPoint x="630" y="370" as="sourcePoint" />
            <mxPoint x="659" y="370" as="targetPoint" />
            <Array as="points">
              <mxPoint x="880" y="320" />
            </Array>
          </mxGeometry>
        </mxCell>
        <mxCell id="w-wRqAi06MyMCp4loZvn-27" value="" style="endArrow=classic;html=1;rounded=0;exitX=1;exitY=0.5;exitDx=0;exitDy=0;entryX=0.5;entryY=1;entryDx=0;entryDy=0;" edge="1" parent="1">
          <mxGeometry width="50" height="50" relative="1" as="geometry">
            <mxPoint x="659.71" y="299.71" as="sourcePoint" />
            <mxPoint x="659.71" y="200.28" as="targetPoint" />
          </mxGeometry>
        </mxCell>
        <mxCell id="w-wRqAi06MyMCp4loZvn-28" value="" style="endArrow=classic;html=1;rounded=0;exitX=1;exitY=0.5;exitDx=0;exitDy=0;entryX=0.5;entryY=1;entryDx=0;entryDy=0;" edge="1" parent="1">
          <mxGeometry width="50" height="50" relative="1" as="geometry">
            <mxPoint x="749.71" y="299.43" as="sourcePoint" />
            <mxPoint x="749.71" y="200" as="targetPoint" />
          </mxGeometry>
        </mxCell>
        <mxCell id="w-wRqAi06MyMCp4loZvn-29" value="" style="endArrow=classic;html=1;rounded=0;exitX=1;exitY=0.5;exitDx=0;exitDy=0;entryX=0;entryY=0.5;entryDx=0;entryDy=0;" edge="1" parent="1" source="w-wRqAi06MyMCp4loZvn-6" target="w-wRqAi06MyMCp4loZvn-12">
          <mxGeometry width="50" height="50" relative="1" as="geometry">
            <mxPoint x="510" y="290" as="sourcePoint" />
            <mxPoint x="560" y="240" as="targetPoint" />
          </mxGeometry>
        </mxCell>
        <mxCell id="w-wRqAi06MyMCp4loZvn-30" value="" style="endArrow=classic;html=1;rounded=0;exitX=1;exitY=0.5;exitDx=0;exitDy=0;entryX=0;entryY=0.5;entryDx=0;entryDy=0;" edge="1" parent="1" source="w-wRqAi06MyMCp4loZvn-5" target="w-wRqAi06MyMCp4loZvn-11">
          <mxGeometry width="50" height="50" relative="1" as="geometry">
            <mxPoint x="600" y="329.43" as="sourcePoint" />
            <mxPoint x="600" y="230" as="targetPoint" />
          </mxGeometry>
        </mxCell>
        <mxCell id="w-wRqAi06MyMCp4loZvn-31" value="" style="endArrow=classic;html=1;rounded=0;exitX=1;exitY=0.5;exitDx=0;exitDy=0;entryX=0;entryY=0.5;entryDx=0;entryDy=0;" edge="1" parent="1" source="w-wRqAi06MyMCp4loZvn-12" target="w-wRqAi06MyMCp4loZvn-14">
          <mxGeometry width="50" height="50" relative="1" as="geometry">
            <mxPoint x="530" y="195" as="sourcePoint" />
            <mxPoint x="540" y="230" as="targetPoint" />
          </mxGeometry>
        </mxCell>
        <mxCell id="w-wRqAi06MyMCp4loZvn-33" value="" style="endArrow=classic;html=1;rounded=0;entryX=0;entryY=0.5;entryDx=0;entryDy=0;exitX=1;exitY=0.5;exitDx=0;exitDy=0;" edge="1" parent="1" source="w-wRqAi06MyMCp4loZvn-14" target="w-wRqAi06MyMCp4loZvn-18">
          <mxGeometry width="50" height="50" relative="1" as="geometry">
            <mxPoint x="700" y="190" as="sourcePoint" />
            <mxPoint x="560" y="215" as="targetPoint" />
          </mxGeometry>
        </mxCell>
        <mxCell id="w-wRqAi06MyMCp4loZvn-34" value="" style="endArrow=classic;html=1;rounded=0;exitX=1;exitY=0.5;exitDx=0;exitDy=0;entryX=0;entryY=0.5;entryDx=0;entryDy=0;" edge="1" parent="1" source="w-wRqAi06MyMCp4loZvn-11" target="w-wRqAi06MyMCp4loZvn-13">
          <mxGeometry width="50" height="50" relative="1" as="geometry">
            <mxPoint x="560" y="225" as="sourcePoint" />
            <mxPoint x="570" y="225" as="targetPoint" />
          </mxGeometry>
        </mxCell>
        <mxCell id="w-wRqAi06MyMCp4loZvn-35" value="" style="endArrow=classic;html=1;rounded=0;exitX=1;exitY=0.5;exitDx=0;exitDy=0;entryX=0;entryY=0.5;entryDx=0;entryDy=0;" edge="1" parent="1" source="w-wRqAi06MyMCp4loZvn-13" target="w-wRqAi06MyMCp4loZvn-17">
          <mxGeometry width="50" height="50" relative="1" as="geometry">
            <mxPoint x="570" y="235" as="sourcePoint" />
            <mxPoint x="580" y="235" as="targetPoint" />
          </mxGeometry>
        </mxCell>
        <mxCell id="w-wRqAi06MyMCp4loZvn-36" value="" style="endArrow=classic;html=1;rounded=0;exitX=1;exitY=0.5;exitDx=0;exitDy=0;entryX=0.5;entryY=0;entryDx=0;entryDy=0;exitPerimeter=0;" edge="1" parent="1" source="w-wRqAi06MyMCp4loZvn-18" target="w-wRqAi06MyMCp4loZvn-9">
          <mxGeometry width="50" height="50" relative="1" as="geometry">
            <mxPoint x="800" y="330" as="sourcePoint" />
            <mxPoint x="890" y="280" as="targetPoint" />
            <Array as="points">
              <mxPoint x="880" y="185" />
            </Array>
          </mxGeometry>
        </mxCell>
        <mxCell id="w-wRqAi06MyMCp4loZvn-37" value="" style="endArrow=classic;html=1;rounded=0;entryX=0;entryY=0.5;entryDx=0;entryDy=0;exitX=1;exitY=0.5;exitDx=0;exitDy=0;" edge="1" parent="1" source="w-wRqAi06MyMCp4loZvn-9" target="w-wRqAi06MyMCp4loZvn-10">
          <mxGeometry width="50" height="50" relative="1" as="geometry">
            <mxPoint x="830" y="290" as="sourcePoint" />
            <mxPoint x="880" y="240" as="targetPoint" />
          </mxGeometry>
        </mxCell>
        <mxCell id="w-wRqAi06MyMCp4loZvn-38" value="" style="endArrow=classic;html=1;rounded=0;exitX=1;exitY=0.5;exitDx=0;exitDy=0;" edge="1" parent="1" source="w-wRqAi06MyMCp4loZvn-10" target="w-wRqAi06MyMCp4loZvn-19">
          <mxGeometry width="50" height="50" relative="1" as="geometry">
            <mxPoint x="950" y="260" as="sourcePoint" />
            <mxPoint x="980" y="260" as="targetPoint" />
          </mxGeometry>
        </mxCell>
      </root>
    </mxGraphModel>
  </diagram>
</mxfile>
